<svg id="svg" version="1.1" xmlns="http://www.w3.org/2000/svg" xmlns:xlink="http://www.w3.org/1999/xlink" viewBox="70.58 66.93 274.05 277.07"><g id="svgg"><path id="path0" d="M193.981 81.055 C 191.433 81.296,183.640 82.686,181.553 83.270 C 178.052 84.251,181.648 83.996,189.320 82.718 C 193.165 82.078,196.922 81.542,197.670 81.527 C 198.417 81.511,199.379 81.349,199.806 81.165 C 200.608 80.820,197.142 80.755,193.981 81.055 M201.748 94.611 C 183.114 95.796,164.737 102.067,150.583 112.070 C 147.366 114.343,146.859 115.350,148.283 116.639 C 149.386 117.637,150.175 117.433,153.556 115.281 C 185.631 94.868,225.494 94.208,258.920 113.536 C 265.104 117.113,266.796 117.331,266.796 114.553 C 266.796 110.718,244.988 100.319,229.856 96.938 C 221.800 95.139,209.484 94.119,201.748 94.611 M182.241 111.684 C 170.568 114.708,150.680 125.952,150.680 129.528 C 150.680 130.253,152.062 131.650,152.779 131.650 C 153.080 131.650,155.822 129.973,158.873 127.922 C 166.886 122.536,177.384 117.591,184.758 115.727 C 186.722 115.230,187.729 113.961,187.352 112.458 C 186.932 110.788,186.156 110.670,182.241 111.684 M280.610 126.047 C 279.324 127.333,282.205 132.427,284.218 132.427 C 284.891 132.427,286.602 130.638,286.602 129.934 C 286.602 127.785,281.913 124.744,280.610 126.047 M132.728 126.239 C 129.000 128.412,115.515 147.489,114.720 151.714 C 113.916 155.994,117.071 155.729,119.280 151.331 C 121.931 146.055,128.210 137.314,133.667 131.303 C 136.063 128.665,136.279 128.060,135.318 126.688 C 134.669 125.763,133.804 125.613,132.728 126.239 M123.323 184.941 C 122.506 186.107,122.408 236.837,123.220 238.447 C 123.665 239.330,123.965 239.428,126.551 239.532 C 130.826 239.705,130.485 241.183,130.485 222.451 C 130.485 200.132,130.621 199.968,137.902 213.461 C 145.797 228.091,151.973 238.876,152.669 239.249 C 154.110 240.020,159.341 239.531,159.813 238.581 C 160.478 237.243,160.565 186.506,159.905 185.243 C 159.447 184.366,159.135 184.262,156.689 184.172 C 152.474 184.017,152.843 182.436,152.621 201.594 C 152.381 222.329,152.178 222.780,147.178 213.682 C 140.485 201.504,131.459 185.701,130.767 184.951 C 129.568 183.651,124.232 183.644,123.323 184.941 M175.794 184.708 C 173.520 185.407,170.818 187.960,170.050 190.134 C 169.622 191.347,169.515 195.647,169.515 211.650 L 169.515 231.650 170.606 233.873 C 173.225 239.207,174.800 239.694,188.932 239.538 C 207.043 239.337,206.984 239.425,206.984 212.427 C 206.984 183.782,207.166 184.056,188.204 184.105 C 180.054 184.126,177.245 184.262,175.794 184.708 M216.527 184.941 C 215.994 185.701,215.922 188.904,215.922 211.845 C 215.922 242.167,215.552 239.612,219.944 239.612 C 224.030 239.612,223.689 241.682,223.689 216.834 C 223.689 192.848,223.649 193.273,225.984 192.625 C 227.828 192.113,240.957 192.126,242.815 192.642 C 245.194 193.302,245.437 194.201,245.437 202.330 C 245.437 212.453,245.714 212.125,236.893 212.420 L 230.874 212.621 230.887 213.592 C 230.901 214.645,244.233 237.277,245.709 238.754 C 246.874 239.919,252.905 239.921,253.127 238.756 C 253.197 238.392,251.146 234.594,248.569 230.317 C 242.815 220.766,242.761 220.399,246.950 219.416 C 252.401 218.137,253.204 215.943,253.204 202.330 C 253.204 184.131,253.139 184.078,231.215 184.078 L 217.131 184.078 216.527 184.941 M262.358 184.688 C 261.578 185.467,261.482 191.141,262.237 191.768 C 262.515 191.998,265.303 192.229,268.680 192.301 C 277.033 192.478,276.117 189.549,276.117 216.073 C 276.117 241.597,275.777 239.612,280.139 239.612 C 284.224 239.612,283.883 241.682,283.883 216.834 C 283.883 201.098,284.009 194.712,284.334 194.000 C 284.945 192.659,286.694 192.238,291.670 192.235 C 296.686 192.233,296.699 192.222,296.699 188.155 C 296.699 186.227,296.519 184.829,296.233 184.544 C 295.440 183.750,263.158 183.888,262.358 184.688 M196.505 192.740 C 199.183 193.654,199.222 193.927,199.221 211.456 C 199.218 233.169,200.143 231.550,187.850 231.380 L 179.352 231.262 178.220 229.994 L 177.087 228.726 177.087 211.891 C 177.087 193.046,177.020 193.502,179.927 192.661 C 181.787 192.123,194.878 192.186,196.505 192.740 " stroke="none" fill="#e1f9f9" fill-rule="evenodd"/><path id="path1" d="M198.252 77.540 C 152.284 81.323,112.368 108.817,93.347 149.798 C 85.323 167.087,80.532 195.728,85.665 195.728 C 87.011 195.728,87.486 194.430,88.718 187.372 C 92.896 163.434,100.331 146.194,113.663 129.530 C 163.927 66.704,263.191 70.865,307.848 137.670 C 317.425 151.996,324.589 172.116,327.605 193.157 C 329.309 205.042,331.714 204.550,331.673 192.326 C 331.554 157.380,310.257 119.990,278.495 98.963 C 254.648 83.176,225.223 75.320,198.252 77.540 M199.806 81.165 C 199.379 81.349,198.417 81.511,197.670 81.527 C 196.922 81.542,193.165 82.078,189.320 82.718 C 181.648 83.996,178.052 84.251,181.553 83.270 C 183.640 82.686,191.433 81.296,193.981 81.055 C 197.142 80.755,200.608 80.820,199.806 81.165 M199.806 93.203 C 181.939 94.705,164.889 100.673,150.854 110.337 C 145.652 113.920,145.069 115.226,147.563 117.720 C 149.111 119.268,149.556 119.172,154.159 116.302 C 187.208 95.696,226.503 95.392,260.174 115.481 C 264.294 117.938,265.763 118.212,267.117 116.771 C 269.204 114.550,267.822 112.235,262.396 108.865 C 243.933 97.396,220.294 91.480,199.806 93.203 M220.971 95.375 C 241.287 97.997,270.887 111.481,266.330 116.039 C 265.419 116.950,263.989 116.468,258.920 113.536 C 225.494 94.208,185.631 94.868,153.556 115.281 C 150.175 117.433,149.386 117.637,148.283 116.639 C 146.859 115.350,147.366 114.343,150.583 112.070 C 170.039 98.320,196.028 92.156,220.971 95.375 M182.703 110.297 C 168.826 114.029,149.515 125.181,149.515 129.462 C 149.515 133.765,152.759 133.969,158.144 130.005 C 165.579 124.532,177.661 118.756,185.553 116.902 C 188.215 116.276,188.908 115.301,188.643 112.550 C 188.337 109.366,187.437 109.024,182.703 110.297 M187.352 112.458 C 187.729 113.961,186.722 115.230,184.758 115.727 C 177.384 117.591,166.886 122.536,158.873 127.922 C 152.898 131.938,152.628 132.046,151.456 130.874 C 149.324 128.741,155.415 123.567,166.923 117.734 C 178.550 111.840,186.670 109.743,187.352 112.458 M218.118 118.110 C 216.583 119.003,215.250 123.811,216.351 124.491 C 216.586 124.636,218.682 125.080,221.009 125.477 C 240.744 128.844,257.411 139.185,271.732 156.946 C 278.153 164.911,281.005 165.962,279.392 159.770 C 276.512 148.715,260.764 133.386,244.078 125.397 C 234.773 120.943,220.256 116.867,218.118 118.110 M279.987 124.011 C 277.272 125.365,277.628 127.608,281.142 131.301 C 283.744 134.036,284.596 134.181,286.459 132.205 C 288.308 130.245,288.179 129.287,285.728 126.768 C 283.270 124.241,281.363 123.325,279.987 124.011 M130.601 126.699 C 120.146 136.709,111.078 152.682,114.378 155.278 C 116.601 157.026,117.879 156.096,121.069 150.406 C 124.155 144.902,128.264 139.168,133.348 133.269 C 135.618 130.635,137.476 128.396,137.476 128.292 C 137.476 127.177,134.873 124.272,133.874 124.272 C 133.469 124.272,131.996 125.364,130.601 126.699 M283.068 126.000 C 286.005 127.518,287.158 129.965,285.649 131.474 C 284.334 132.788,284.006 132.702,281.870 130.487 C 278.912 127.417,279.749 124.283,283.068 126.000 M135.318 126.688 C 136.279 128.060,136.063 128.665,133.667 131.303 C 128.210 137.314,121.931 146.055,119.280 151.331 C 117.570 154.736,115.416 155.863,114.733 153.711 C 113.821 150.835,120.578 139.622,128.896 130.208 C 133.051 125.507,134.091 124.937,135.318 126.688 M140.031 133.689 C 136.567 139.001,141.230 146.796,147.871 146.796 C 152.859 146.796,153.612 142.733,149.011 140.647 C 146.128 139.339,145.050 138.327,143.982 135.922 C 142.573 132.751,141.162 131.954,140.031 133.689 M201.553 135.936 C 181.208 138.435,161.815 151.014,153.080 167.379 C 149.926 173.287,149.742 175.534,152.411 175.534 C 153.857 175.534,154.487 174.893,159.763 168.046 C 172.647 151.328,189.623 142.564,209.185 142.532 C 219.673 142.515,234.194 146.780,237.563 150.867 C 242.538 156.902,251.769 151.854,248.791 144.727 C 247.357 141.295,240.932 139.296,239.385 141.801 C 238.938 142.524,236.495 142.066,232.842 140.574 C 223.062 136.579,210.945 134.783,201.553 135.936 M296.590 144.579 C 296.476 144.876,296.523 145.347,296.696 145.626 C 297.131 146.331,298.339 145.786,298.180 144.957 C 298.018 144.119,296.871 143.846,296.590 144.579 M198.805 154.001 C 186.833 156.169,173.752 164.019,176.112 167.620 C 177.481 169.710,178.021 169.635,184.306 166.492 C 194.222 161.534,199.002 160.289,208.350 160.232 C 215.390 160.189,215.401 160.186,215.734 157.952 C 216.093 155.550,215.483 154.305,213.708 153.812 C 211.653 153.241,202.348 153.359,198.805 154.001 M304.063 159.305 C 301.097 160.402,300.911 161.389,302.726 166.402 C 303.478 168.479,304.804 172.632,305.672 175.630 C 307.603 182.296,307.858 182.872,308.999 183.158 C 312.923 184.143,313.397 179.825,310.477 169.681 C 307.996 161.061,306.381 158.447,304.063 159.305 M107.780 166.451 C 107.038 167.192,107.063 173.231,107.809 173.478 C 108.311 173.644,111.068 168.489,111.068 167.382 C 111.068 165.979,108.873 165.357,107.780 166.451 M122.664 183.655 C 121.605 184.512,121.678 181.446,121.845 217.961 C 121.959 242.962,121.501 240.777,126.620 240.777 C 129.419 240.777,129.843 240.678,130.697 239.823 L 131.650 238.870 131.656 223.416 C 131.664 203.531,131.468 203.814,137.502 214.951 C 152.142 241.978,151.116 240.541,155.896 240.716 C 161.762 240.931,161.165 244.219,161.165 211.673 L 161.165 184.122 160.302 183.517 C 158.973 182.587,153.771 182.680,152.567 183.656 L 151.650 184.399 151.631 200.160 C 151.612 216.451,151.495 217.698,150.120 216.294 C 149.627 215.792,141.482 201.449,135.022 189.709 C 131.545 183.391,130.972 182.913,126.878 182.913 C 124.211 182.913,123.406 183.054,122.664 183.655 M175.614 183.637 C 172.775 184.633,170.887 186.276,169.515 188.943 L 168.350 191.208 168.350 211.235 L 168.350 231.262 169.279 233.569 C 171.867 239.993,174.313 240.877,189.029 240.707 L 199.806 240.583 201.928 239.417 C 207.643 236.280,207.819 235.397,207.683 210.631 C 207.553 186.881,207.505 186.671,201.558 183.918 C 198.976 182.723,178.841 182.505,175.614 183.637 M215.884 183.642 C 214.822 184.502,214.914 181.083,215.049 214.854 C 215.162 243.424,214.675 240.777,219.823 240.777 C 222.623 240.777,223.047 240.678,223.901 239.823 L 224.854 238.870 224.854 216.985 C 224.854 198.697,224.945 194.976,225.406 194.346 C 225.922 193.640,226.489 193.592,234.297 193.592 C 245.188 193.592,244.276 192.796,244.259 202.293 C 244.243 211.767,244.897 211.014,236.474 211.262 C 227.114 211.537,227.092 210.242,236.729 226.385 C 245.855 241.673,244.869 240.548,249.295 240.719 C 256.072 240.979,256.079 240.861,249.899 230.485 C 244.363 221.189,244.426 221.481,247.706 220.352 C 253.615 218.316,254.175 216.741,254.175 202.136 L 254.175 190.874 253.064 188.613 C 251.782 186.000,249.800 184.366,246.856 183.491 C 243.577 182.517,217.114 182.646,215.884 183.642 M261.536 183.866 C 260.664 184.737,260.583 185.120,260.583 188.332 C 260.583 193.407,260.567 193.396,267.864 193.404 C 271.015 193.407,273.854 193.575,274.175 193.778 C 274.678 194.096,274.784 197.215,274.951 216.671 C 275.180 243.172,274.607 240.583,280.239 240.583 C 285.544 240.583,285.049 243.011,285.049 217.013 C 285.049 190.597,284.289 193.398,291.456 193.398 C 297.691 193.398,297.866 193.268,297.859 188.641 C 297.849 182.475,299.291 182.913,278.993 182.913 L 262.489 182.913 261.536 183.866 M130.767 184.951 C 131.459 185.701,140.485 201.504,147.178 213.682 C 152.178 222.780,152.381 222.329,152.621 201.594 C 152.843 182.436,152.474 184.017,156.689 184.172 C 159.135 184.262,159.447 184.366,159.905 185.243 C 160.565 186.506,160.478 237.243,159.813 238.581 C 159.341 239.531,154.110 240.020,152.669 239.249 C 151.973 238.876,145.797 228.091,137.902 213.461 C 133.753 205.772,133.010 204.660,132.026 204.660 C 130.577 204.660,130.485 205.720,130.485 222.451 C 130.485 241.183,130.826 239.705,126.551 239.532 C 123.965 239.428,123.665 239.330,123.220 238.447 C 122.408 236.837,122.506 186.107,123.323 184.941 C 124.232 183.644,129.568 183.651,130.767 184.951 M200.325 184.638 C 206.501 186.817,206.984 188.832,206.984 212.427 C 206.984 233.936,206.568 235.816,201.165 238.694 C 199.465 239.599,179.322 240.012,176.424 239.201 C 174.151 238.564,171.895 236.499,170.606 233.873 L 169.515 231.650 169.515 211.650 C 169.515 183.234,168.890 184.154,188.204 184.105 C 196.442 184.084,199.083 184.200,200.325 184.638 M247.171 184.716 C 252.360 186.484,253.204 188.947,253.204 202.330 C 253.204 215.943,252.401 218.137,246.950 219.416 C 242.761 220.399,242.815 220.766,248.569 230.317 C 251.146 234.594,253.197 238.392,253.127 238.756 C 252.905 239.921,246.874 239.919,245.709 238.754 C 244.233 237.277,230.901 214.645,230.887 213.592 L 230.874 212.621 236.893 212.420 C 245.714 212.125,245.437 212.453,245.437 202.330 C 245.437 194.201,245.194 193.302,242.815 192.642 C 240.957 192.126,227.828 192.113,225.984 192.625 C 223.649 193.273,223.689 192.848,223.689 216.834 C 223.689 241.682,224.030 239.612,219.944 239.612 C 215.552 239.612,215.922 242.167,215.922 211.845 C 215.922 188.904,215.994 185.701,216.527 184.941 L 217.131 184.078 231.215 184.078 C 243.258 184.078,245.570 184.170,247.171 184.716 M296.233 184.544 C 296.519 184.829,296.699 186.227,296.699 188.155 C 296.699 192.222,296.686 192.233,291.670 192.235 C 286.694 192.238,284.945 192.659,284.334 194.000 C 284.009 194.712,283.883 201.098,283.883 216.834 C 283.883 241.682,284.224 239.612,280.139 239.612 C 275.777 239.612,276.117 241.597,276.117 216.073 C 276.117 189.549,277.033 192.478,268.680 192.301 C 265.303 192.229,262.515 191.998,262.237 191.768 C 261.482 191.141,261.578 185.467,262.358 184.688 C 263.158 183.888,295.440 183.750,296.233 184.544 M179.927 192.661 C 177.020 193.502,177.087 193.046,177.087 211.891 L 177.087 228.726 178.220 229.994 L 179.352 231.262 187.850 231.380 C 200.143 231.550,199.218 233.169,199.221 211.456 C 199.222 193.927,199.183 193.654,196.505 192.740 C 194.878 192.186,181.787 192.123,179.927 192.661 M196.022 193.812 C 198.050 194.519,198.093 194.929,197.974 212.498 C 197.870 227.758,197.823 228.703,197.124 229.474 C 195.913 230.812,180.748 230.730,179.175 229.377 L 178.112 228.463 178.210 212.018 C 178.310 195.100,178.375 194.415,179.928 193.789 C 181.152 193.296,194.596 193.315,196.022 193.812 M101.359 198.880 C 98.242 200.114,95.919 204.487,96.650 207.741 C 98.268 214.941,107.513 216.238,110.941 209.745 C 114.171 203.627,107.752 196.349,101.359 198.880 M105.603 203.675 C 107.552 204.683,107.860 207.568,106.161 208.904 C 102.798 211.549,99.077 207.271,102.106 204.242 C 103.386 202.962,104.025 202.859,105.603 203.675 M309.781 203.870 C 304.481 205.560,302.503 212.440,306.130 216.571 C 310.969 222.082,319.732 218.882,319.739 211.601 C 319.744 206.342,314.586 202.337,309.781 203.870 M83.193 208.760 C 78.509 212.041,90.923 257.824,96.804 258.957 C 97.835 259.155,97.673 258.278,95.312 250.869 C 91.277 238.201,89.307 227.791,88.594 215.367 C 88.191 208.330,86.594 206.378,83.193 208.760 M314.387 209.497 C 315.723 210.833,315.653 212.562,314.205 214.010 C 312.804 215.411,311.362 215.475,310.079 214.192 C 308.070 212.183,309.458 208.544,312.233 208.544 C 312.990 208.544,313.786 208.896,314.387 209.497 M104.857 229.356 C 99.641 231.619,98.996 237.916,103.659 241.059 C 107.454 243.616,113.371 240.332,113.392 235.656 C 113.412 231.003,108.841 227.629,104.857 229.356 M315.562 233.620 C 314.329 234.853,315.037 236.893,316.699 236.893 C 317.815 236.893,318.447 236.168,318.447 234.887 C 318.447 233.243,316.704 232.478,315.562 233.620 M114.584 254.927 C 113.835 255.829,114.348 257.142,116.603 260.099 C 118.396 262.448,122.330 266.450,122.330 265.925 C 122.330 265.738,119.110 258.702,117.751 255.922 C 117.007 254.400,115.432 253.904,114.584 254.927 M173.362 263.118 C 172.101 264.456,171.317 266.719,171.829 267.548 C 172.738 269.019,175.821 266.931,176.708 264.243 C 177.594 261.562,175.496 260.856,173.362 263.118 M235.340 263.132 C 227.083 266.559,220.713 268.412,214.767 269.116 C 210.394 269.634,209.709 270.089,209.709 272.478 C 209.709 275.181,210.546 275.506,215.561 274.753 C 230.092 272.571,243.748 265.651,240.311 262.214 C 239.610 261.513,238.944 261.636,235.340 263.132 M197.194 262.797 C 195.539 264.629,195.110 279.271,196.608 282.784 C 197.809 285.600,200.237 285.630,201.223 282.841 C 202.185 280.122,201.956 264.805,200.932 263.428 C 199.934 262.084,198.115 261.777,197.194 262.797 M291.215 266.118 C 290.654 266.598,288.829 268.738,287.158 270.874 C 278.210 282.311,266.021 292.039,251.645 299.216 C 246.521 301.775,245.049 302.700,245.049 303.361 C 245.049 305.332,260.466 297.480,269.126 291.098 C 273.764 287.680,277.779 284.030,284.667 276.968 C 288.622 272.913,292.510 269.210,293.308 268.740 C 294.946 267.773,295.273 266.323,294.006 265.645 C 292.902 265.054,292.349 265.148,291.215 266.118 M170.570 301.228 C 168.074 302.459,166.646 305.628,167.372 308.326 C 169.321 315.562,179.417 314.344,179.417 306.873 C 179.417 302.285,174.628 299.229,170.570 301.228 M205.230 306.044 C 201.682 307.076,199.571 311.466,200.989 314.862 C 203.246 320.262,210.314 321.250,213.381 316.594 C 217.193 310.807,211.994 304.076,205.230 306.044 M210.000 311.687 C 211.202 313.032,211.167 315.082,209.921 316.328 C 207.840 318.409,204.194 316.952,204.194 314.041 C 204.194 310.728,207.827 309.255,210.000 311.687 " stroke="none" fill="#64dee8" fill-rule="evenodd"/><path id="path2" d="M193.810 67.195 C 137.369 73.022,90.157 112.300,75.954 165.243 C 55.336 242.100,95.676 316.542,169.903 338.612 C 185.441 343.232,209.800 345.313,222.718 343.123 C 223.359 343.015,226.330 342.560,229.320 342.112 C 247.006 339.466,265.939 332.454,281.165 322.910 C 328.351 293.334,353.487 232.007,341.768 175.051 C 331.032 122.872,292.955 83.605,240.388 70.504 C 235.576 69.305,232.495 68.732,224.466 67.546 C 220.788 67.003,198.179 66.744,193.810 67.195 M217.495 77.696 C 279.720 82.634,331.477 134.596,331.673 192.326 C 331.714 204.550,329.309 205.042,327.605 193.157 C 324.589 172.116,317.425 151.996,307.848 137.670 C 263.191 70.865,163.927 66.704,113.663 129.530 C 100.331 146.194,92.896 163.434,88.718 187.372 C 87.486 194.430,87.011 195.728,85.665 195.728 C 80.532 195.728,85.323 167.087,93.347 149.798 C 112.368 108.817,152.284 81.323,198.252 77.540 C 202.020 77.230,212.714 77.317,217.495 77.696 M221.359 93.979 C 240.701 96.666,267.961 108.767,267.961 114.665 C 267.961 118.193,265.204 118.481,260.174 115.481 C 226.503 95.392,187.208 95.696,154.159 116.302 C 149.556 119.172,149.111 119.268,147.563 117.720 C 145.069 115.226,145.652 113.920,150.854 110.337 C 171.045 96.434,196.507 90.527,221.359 93.979 M187.744 110.032 C 190.111 111.763,188.709 116.160,185.553 116.902 C 177.661 118.756,165.579 124.532,158.144 130.005 C 152.759 133.969,149.515 133.765,149.515 129.462 C 149.515 123.987,183.326 106.802,187.744 110.032 M224.339 118.662 C 248.752 123.692,275.124 143.384,279.392 159.770 C 281.005 165.962,278.153 164.911,271.732 156.946 C 257.411 139.185,240.744 128.844,221.009 125.477 C 215.356 124.513,214.925 123.982,216.671 120.137 C 217.923 117.379,218.020 117.360,224.339 118.662 M285.728 126.768 C 288.179 129.287,288.308 130.245,286.459 132.205 C 284.596 134.181,283.744 134.036,281.142 131.301 C 278.383 128.402,277.695 126.896,278.486 125.486 C 279.947 122.884,282.367 123.313,285.728 126.768 M135.608 125.340 C 136.518 126.316,137.476 127.829,137.476 128.292 C 137.476 128.396,135.618 130.635,133.348 133.269 C 128.264 139.168,124.155 144.902,121.069 150.406 C 117.879 156.096,116.601 157.026,114.378 155.278 C 111.645 153.128,115.857 144.275,125.023 132.902 C 131.295 125.120,133.760 123.359,135.608 125.340 M142.610 133.495 C 142.938 133.869,143.555 134.961,143.982 135.922 C 145.050 138.327,146.128 139.339,149.011 140.647 C 151.708 141.870,152.491 142.961,151.860 144.621 C 150.037 149.414,140.367 145.873,139.096 139.947 C 138.166 135.610,140.581 131.176,142.610 133.495 M218.874 136.513 C 223.479 137.304,228.190 138.674,232.842 140.574 C 236.495 142.066,238.938 142.524,239.385 141.801 C 240.932 139.296,247.357 141.295,248.791 144.727 C 251.769 151.854,242.538 156.902,237.563 150.867 C 234.194 146.780,219.673 142.515,209.185 142.532 C 189.623 142.564,172.647 151.328,159.763 168.046 C 154.487 174.893,153.857 175.534,152.411 175.534 C 146.597 175.534,155.984 159.818,167.184 150.798 C 182.686 138.314,200.575 133.371,218.874 136.513 M298.180 144.957 C 298.339 145.786,297.131 146.331,296.696 145.626 C 296.248 144.901,296.686 144.018,297.423 144.160 C 297.768 144.226,298.108 144.585,298.180 144.957 M213.708 153.812 C 215.483 154.305,216.093 155.550,215.734 157.952 C 215.401 160.186,215.390 160.189,208.350 160.232 C 199.002 160.289,194.222 161.534,184.306 166.492 C 178.021 169.635,177.481 169.710,176.112 167.620 C 173.752 164.019,186.833 156.169,198.805 154.001 C 202.348 153.359,211.653 153.241,213.708 153.812 M307.824 162.179 C 311.945 171.099,313.588 182.460,310.856 183.146 C 308.223 183.807,307.910 183.353,305.672 175.630 C 304.804 172.632,303.478 168.479,302.726 166.402 C 301.117 161.957,301.084 161.559,302.233 160.479 C 304.716 158.147,306.164 158.587,307.824 162.179 M110.317 166.227 C 111.394 166.804,111.256 167.772,109.653 170.878 C 107.874 174.326,107.409 174.195,107.267 170.206 C 107.124 166.221,108.049 165.014,110.317 166.227 M131.423 184.175 C 132.109 184.869,133.729 187.359,135.022 189.709 C 141.482 201.449,149.627 215.792,150.120 216.294 C 151.495 217.698,151.612 216.451,151.631 200.160 L 151.650 184.399 152.567 183.656 C 153.771 182.680,158.973 182.587,160.302 183.517 L 161.165 184.122 161.165 211.673 C 161.165 244.219,161.762 240.931,155.896 240.716 C 151.116 240.541,152.142 241.978,137.502 214.951 C 131.468 203.814,131.664 203.531,131.656 223.416 L 131.650 238.870 130.697 239.823 C 129.386 241.135,123.973 241.255,122.718 240.000 C 121.927 239.208,121.748 230.088,121.748 190.548 C 121.748 182.915,121.749 182.913,126.878 182.913 C 130.082 182.913,130.210 182.948,131.423 184.175 M201.558 183.918 C 207.505 186.671,207.553 186.881,207.683 210.631 C 207.819 235.397,207.643 236.280,201.928 239.417 L 199.806 240.583 189.029 240.707 C 174.313 240.877,171.867 239.993,169.279 233.569 L 168.350 231.262 168.350 211.235 L 168.350 191.208 169.515 188.943 C 170.887 186.276,172.775 184.633,175.614 183.637 C 178.841 182.505,198.976 182.723,201.558 183.918 M246.856 183.491 C 249.800 184.366,251.782 186.000,253.064 188.613 L 254.175 190.874 254.175 202.136 C 254.175 216.741,253.615 218.316,247.706 220.352 C 244.426 221.481,244.363 221.189,249.899 230.485 C 256.079 240.861,256.072 240.979,249.295 240.719 C 244.869 240.548,245.855 241.673,236.729 226.385 C 227.092 210.242,227.114 211.537,236.474 211.262 C 244.897 211.014,244.243 211.767,244.259 202.293 C 244.276 192.796,245.188 193.592,234.297 193.592 C 226.489 193.592,225.922 193.640,225.406 194.346 C 224.945 194.976,224.854 198.697,224.854 216.985 L 224.854 238.870 223.901 239.823 C 223.047 240.678,222.623 240.777,219.823 240.777 C 214.675 240.777,215.162 243.424,215.049 214.854 C 214.914 181.083,214.822 184.502,215.884 183.642 C 217.114 182.646,243.577 182.517,246.856 183.491 M296.454 183.348 C 297.653 183.895,297.852 184.646,297.859 188.641 C 297.866 193.268,297.691 193.398,291.456 193.398 C 284.289 193.398,285.049 190.597,285.049 217.013 C 285.049 243.011,285.544 240.583,280.239 240.583 C 274.607 240.583,275.180 243.172,274.951 216.671 C 274.784 197.215,274.678 194.096,274.175 193.778 C 273.854 193.575,271.015 193.407,267.864 193.404 C 260.567 193.396,260.583 193.407,260.583 188.332 C 260.583 185.120,260.664 184.737,261.536 183.866 L 262.489 182.913 278.993 182.913 C 290.364 182.913,295.795 183.048,296.454 183.348 M179.928 193.789 C 178.375 194.415,178.310 195.100,178.210 212.018 L 178.112 228.463 179.175 229.377 C 180.748 230.730,195.913 230.812,197.124 229.474 C 197.823 228.703,197.870 227.758,197.974 212.498 C 198.093 194.929,198.050 194.519,196.022 193.812 C 194.596 193.315,181.152 193.296,179.928 193.789 M108.186 199.709 C 112.928 202.915,113.050 209.334,108.430 212.588 C 102.563 216.721,94.843 211.072,96.863 204.123 C 98.346 199.021,103.943 196.839,108.186 199.709 M102.106 204.242 C 99.077 207.271,102.798 211.549,106.161 208.904 C 107.860 207.568,107.552 204.683,105.603 203.675 C 104.025 202.859,103.386 202.962,102.106 204.242 M316.085 204.788 C 320.384 207.633,321.038 213.721,317.413 217.164 C 314.101 220.310,309.185 220.051,306.130 216.571 C 300.362 210.002,308.827 199.984,316.085 204.788 M87.389 208.862 C 88.192 209.512,88.288 210.035,88.594 215.367 C 89.307 227.791,91.277 238.201,95.312 250.869 C 97.673 258.278,97.835 259.155,96.804 258.957 C 90.923 257.824,78.509 212.041,83.193 208.760 C 84.352 207.948,86.319 207.996,87.389 208.862 M310.079 209.497 C 308.153 211.423,309.453 215.146,312.051 215.146 C 313.504 215.146,315.340 213.202,315.340 211.663 C 315.340 210.054,313.836 208.544,312.233 208.544 C 311.476 208.544,310.680 208.896,310.079 209.497 M109.320 229.472 C 115.893 232.506,113.959 241.910,106.756 241.935 C 101.138 241.955,98.419 234.690,102.587 230.798 C 104.710 228.816,106.945 228.376,109.320 229.472 M317.695 233.412 C 319.205 234.219,318.439 236.893,316.699 236.893 C 315.037 236.893,314.329 234.853,315.562 233.620 C 316.277 232.904,316.675 232.866,317.695 233.412 M117.751 255.922 C 119.110 258.702,122.330 265.738,122.330 265.925 C 122.330 267.144,114.762 258.209,114.327 256.476 C 113.728 254.091,116.627 253.622,117.751 255.922 M176.687 262.315 C 177.794 263.649,175.033 267.961,173.071 267.961 C 171.808 267.961,171.513 267.455,171.822 265.811 C 172.320 263.155,175.492 260.876,176.687 262.315 M240.311 262.214 C 243.748 265.651,230.092 272.571,215.561 274.753 C 210.546 275.506,209.709 275.181,209.709 272.478 C 209.709 270.089,210.394 269.634,214.767 269.116 C 220.713 268.412,227.083 266.559,235.340 263.132 C 238.944 261.636,239.610 261.513,240.311 262.214 M200.932 263.428 C 201.956 264.805,202.185 280.122,201.223 282.841 C 200.237 285.630,197.809 285.600,196.608 282.784 C 195.789 280.864,195.412 268.074,196.095 265.360 C 196.948 261.962,199.182 261.070,200.932 263.428 M294.006 265.645 C 295.273 266.323,294.946 267.773,293.308 268.740 C 292.510 269.210,288.622 272.913,284.667 276.968 C 277.779 284.030,273.764 287.680,269.126 291.098 C 260.466 297.480,245.049 305.332,245.049 303.361 C 245.049 302.700,246.521 301.775,251.645 299.216 C 266.021 292.039,278.210 282.311,287.158 270.874 C 291.450 265.387,292.305 264.734,294.006 265.645 M176.341 301.466 C 180.106 304.003,180.557 309.199,177.239 311.809 C 171.485 316.335,164.216 308.991,168.497 302.978 C 170.207 300.576,173.950 299.854,176.341 301.466 M210.710 306.368 C 214.613 308.140,215.844 312.854,213.381 316.594 C 210.314 321.250,203.246 320.262,200.989 314.862 C 198.641 309.241,204.933 303.744,210.710 306.368 M206.408 310.650 C 204.036 311.647,203.384 314.811,205.226 316.394 C 206.636 317.607,208.670 317.579,209.921 316.328 C 212.366 313.883,209.549 309.331,206.408 310.650 " stroke="none" fill="#040e16" fill-rule="evenodd"/></g></svg>